# xmcd CD database file
#
# Track frame offsets:
#	187
#	21570
#	41530
#	62950
#
# Disc length: 1103 seconds
#
# Revision: 0
# Processed by: cddbd v1.5.1PL0 Copyright (c) Steve Scherf et al.
# Submitted via: CDex 1.50beta10
#
DISCID=34044d04
DTITLE=高橋　由美子 - WILL YOU MARRY ME?
DYEAR=1998
DGENRE=JPop
TTITLE0=WILL YOU MARRY ME?
TTITLE1=ちょっと待ってちょうだい、けだものさん
TTITLE2=WILL YOU MARRY ME?（カラオケ）
TTITLE3=ちょっと待ってちょうだい、けだものさん（カラオケ）
EXTD=YEAR: 1998
EXTT0=
EXTT1=
EXTT2=
EXTT3=
PLAYORDER=
